<svg width="233" height="56" viewBox="0 0 233 56" fill="none" xmlns="http://www.w3.org/2000/svg">
<path fill-rule="evenodd" clip-rule="evenodd" d="M12.7647 38.265V42.5199H8.50981H4.25491H0V46.6874V50.9423V55.1972H4.25491H8.50981H12.7647H17.0196H21.2745H25.5295H29.7844H34.0393H38.2068H42.4617H46.7166H50.9715V50.9423V46.6874V42.5199H46.7166H42.4617H38.2068V38.265H42.4617H46.7166V34.0101H50.9715V29.7552V25.5003V21.2454V16.9905V12.7356V8.48068V4.22577H46.7166V0H42.4617H38.2068H34.0393H29.7844H25.5295H21.2745H17.0196H12.7647H8.50981V4.22577H4.25491V8.48068H0V12.7356V16.9905V21.2454V25.5003V29.7552H4.25491V34.0101H8.50981V38.265H12.7647Z" fill="#2B398A"/>
<path d="M42.4619 4.22559H38.207V8.4805H42.4619V4.22559Z" fill="#2B398A"/>
<path d="M38.294 4.22559H34.0391V8.4805H38.294V4.22559Z" fill="#2B398A"/>
<path d="M34.0391 4.22559H29.7842V8.4805H34.0391V4.22559Z" fill="#2B398A"/>
<path d="M29.7842 4.22559H25.5293V8.4805H29.7842V4.22559Z" fill="#2B398A"/>
<path d="M25.5293 4.22559H21.2744V8.4805H25.5293V4.22559Z" fill="#2B398A"/>
<path d="M21.2744 4.22559H17.0195V8.4805H21.2744V4.22559Z" fill="#2B398A"/>
<path d="M42.4619 29.7549H38.207V34.0098H42.4619V29.7549Z" fill="#2B398A"/>
<path d="M38.294 29.7549H34.0391V34.0098H38.294V29.7549Z" fill="#2B398A"/>
<path d="M34.0391 29.7549H29.7842V34.0098H34.0391V29.7549Z" fill="#2B398A"/>
<path d="M29.7842 29.7549H25.5293V34.0098H29.7842V29.7549Z" fill="#2B398A"/>
<path d="M25.5293 29.7549H21.2744V34.0098H25.5293V29.7549Z" fill="#2B398A"/>
<path d="M21.2744 29.7549H17.0195V34.0098H21.2744V29.7549Z" fill="#2B398A"/>
<path fill-rule="evenodd" clip-rule="evenodd" d="M42.4616 0H38.2067H34.0392H29.7843H25.5294H21.2745H17.0196H12.7647V4.25491H8.50977V8.50982V12.7647V17.0196V21.2746V25.5295V29.7844V34.0393H12.7647V38.2942H17.0196H21.2745H25.5294H29.7843H34.0392H38.2067H42.4616H46.7165V34.0393H50.9714V29.7844V25.5295V21.2746V17.0196V12.7647V8.50982V4.25491H46.7165V0H42.4616ZM46.7165 12.7356V16.9905V21.2454V25.5003V29.7552H42.4616V34.0101H38.2067H34.0392H29.7843H25.5294H21.2745H17.0196V29.7552H12.7647V25.5003V21.2454V16.9905V12.7356V8.48068H17.0196V4.22577H21.2745H25.5294H29.7843H34.0392H38.2067H42.4616V8.48068H46.7165V12.7356Z" fill="#A3D6FF"/>
<path fill-rule="evenodd" clip-rule="evenodd" d="M21.2744 8.48047V12.7354V16.9903V21.2452V25.5001H25.5293H29.7842V29.755H34.0391V25.5001H38.2066H42.4615V21.2452V16.9903V12.7354V8.48047H38.2066H34.0391H29.7842H25.5293H21.2744Z" fill="#3B56ED"/>
<path fill-rule="evenodd" clip-rule="evenodd" d="M17.0195 8.48047V12.7354V16.9903V21.2452V25.5001V29.755H21.2744H25.5294H29.7843V25.5001H25.5294H21.2744V21.2452V16.9903V12.7354V8.48047H17.0195Z" fill="#548AFF"/>
<path d="M25.5293 46.6875H21.2744V50.9424H25.5293V46.6875Z" fill="#2B398A"/>
<path d="M21.2744 46.6875H17.0195V50.9424H21.2744V46.6875Z" fill="#3B56ED"/>
<path d="M46.7168 46.6875H42.4619V50.9424H46.7168V46.6875Z" fill="#2B398A"/>
<path d="M17.0196 46.6875H12.7646V50.9424H17.0196V46.6875Z" fill="#6BABFF"/>
<path fill-rule="evenodd" clip-rule="evenodd" d="M25.5294 50.9419H21.2745H17.0196H12.7647V46.687H17.0196H21.2745H25.5294V50.9419ZM50.9714 42.5195H46.7165H42.4616H38.2067H34.0392H29.7843H25.5294H21.2745H17.0196H12.7647H8.50977V46.687V50.9419V55.1968H12.7647H17.0196H21.2745H25.5294H29.7843H34.0392H38.2067H42.4616H46.7165H50.9714V50.9419V46.687V42.5195ZM46.7165 46.687V50.9419H42.4616V46.687H46.7165Z" fill="#A3D6FF"/>
<path fill-rule="evenodd" clip-rule="evenodd" d="M8.50981 42.5195H4.25491V46.687H0V50.9419H4.25491V55.1968H8.50981V50.9419V46.687V42.5195Z" fill="#6BABFF"/>
<path d="M4.25491 42.5195H0V46.7745H4.25491V42.5195Z" fill="#3B56ED"/>
<path d="M4.25491 50.9424H0V55.1973H4.25491V50.9424Z" fill="#3B56ED"/>
<path d="M12.7647 0H8.50977V4.25491H12.7647V0Z" fill="#394379"/>
<path d="M12.7647 34.0098H8.50977V38.2647H12.7647V34.0098Z" fill="#5693E3"/>
<path fill-rule="evenodd" clip-rule="evenodd" d="M4.25488 29.755V34.0099H8.50979V29.755V25.5001V21.2452V16.9903V12.7354V8.4805V4.22559H4.25488V8.4805V12.7354V16.9903V21.2452V25.5001V29.755Z" fill="#6BABFF"/>
<path d="M4.25491 25.5H0V29.7549H4.25491V25.5Z" fill="#3B56ED"/>
<path d="M4.25491 21.2451H0V25.5H4.25491V21.2451Z" fill="#3B56ED"/>
<path d="M4.25491 16.9902H0V21.2451H4.25491V16.9902Z" fill="#3B56ED"/>
<path d="M4.25491 12.7354H0V16.9903H4.25491V12.7354Z" fill="#3B56ED"/>
<path d="M4.25491 8.48047H0V12.7354H4.25491V8.48047Z" fill="#3B56ED"/>
<path d="M21.2744 38.2646H17.0195V42.5196H21.2744V38.2646Z" fill="#394379"/>
<path fill-rule="evenodd" clip-rule="evenodd" d="M38.2067 38.2646H34.0392H29.7843H25.5294H21.2744H17.0195V42.5196H21.2744H25.5294H29.7843H34.0392H38.2067V38.2646Z" fill="#3B56ED"/>
<path d="M17.0196 38.2646H12.7646V42.5196H17.0196V38.2646Z" fill="#2B398A"/>
<path d="M12.7647 0H8.50977V4.25491H12.7647V0Z" fill="#6BABFF"/>
<path d="M38.294 25.5H34.0391V29.7549H38.294V25.5Z" fill="#444F8E"/>
<path d="M38.294 25.5H34.0391V29.7549H38.294V25.5Z" fill="#3B56ED"/>
<path d="M34.0391 25.5H29.7842V29.7549H34.0391V25.5Z" fill="#3B56ED"/>
<path d="M29.7842 21.2451H25.5293V25.5H29.7842V21.2451Z" fill="#3B56ED"/>
<path d="M34.0391 12.7354H29.7842V16.9903H34.0391V12.7354Z" fill="#3B56ED"/>
<path d="M21.2744 8.48047H17.0195V12.7354H21.2744V8.48047Z" fill="#444F8E"/>
<path d="M21.2744 8.48047H17.0195V12.7354H21.2744V8.48047Z" fill="#548AFF"/>
<path d="M38.294 12.5029H34.0391V16.7578H38.294V12.5029Z" fill="#3B56ED"/>
<path d="M42.4619 25.5H38.207V29.7549H42.4619V25.5Z" fill="#444F8E"/>
<path d="M4.25491 46.6875H0V50.9424H4.25491V46.6875Z" fill="#3B56ED"/>
<path d="M42.4619 25.5H38.207V29.7549H42.4619V25.5Z" fill="#548AFF"/>
<path d="M86.9927 29.0848H90.1693V32.174H93.2293V29.0848H96.3185V41.4998H102.584V16.6406H96.3185V19.7298H93.2293V22.819H90.1401V19.7298H86.9635V16.6406H80.7852V41.4998H86.9635V29.0848H86.9927ZM152.273 41.4998H158.452V19.7298H155.363V16.6406H142.948V19.7298H139.858V41.4998H146.037V22.819H152.303L152.273 41.4998ZM161.541 41.4998H167.807V16.6406H161.541V41.4998ZM170.867 22.8481H177.133V41.5289H183.282V22.8481H189.548V16.6698H170.867V22.8481ZM192.637 38.3523H195.726V41.5289H208.141V38.3523H211.23V19.759H208.141V16.6698H195.726V19.759H192.637V38.3523ZM198.815 22.8481H205.081V35.2631H198.815V22.8481ZM223.645 35.2631H226.734V41.5289H233V32.2031H229.911V29.1139H233V19.7881H229.911V16.6989H217.496V19.7881H214.319V41.5581H220.585V32.2322H223.674L223.645 35.2631ZM220.556 22.8481H226.734V25.9373H220.556V22.8481Z" fill="white"/>
<path d="M127.744 35.5971H129.257H130.829V23.1118H129.257H127.744H112.171V35.5971H127.744ZM127.744 16.8984H129.257H133.915V20.0051H137V38.7038H133.915V41.8984H129.257H127.744H109.085V38.7038H106V20.0051H109.085V16.8984H127.744Z" fill="#6BABFF"/>
</svg>
